HIERARCHY
ROOT Hips
{
	OFFSET 0.000000 0.000000 0.000000 
	CHANNELS 6 Xposition Yposition Zposition Zrotation Yrotation Xrotation
	JOINT LHipJoint
	{
		OFFSET 0.000000 0.000000 0.000000 
		CHANNELS 3 Zrotation Yrotation Xrotation
		JOINT LeftUpLeg
		{
			OFFSET 0.049174 -0.055197 0.022926 
			CHANNELS 3 Zrotation Yrotation Xrotation
			JOINT LeftLeg
			{
				OFFSET 0.075187 -0.206577 0.000000 
				CHANNELS 3 Zrotation Yrotation Xrotation
				JOINT LeftFoot
				{
					OFFSET 0.083177 -0.228528 0.000000 
					CHANNELS 3 Zrotation Yrotation Xrotation
					JOINT LeftToeBase
					{
						OFFSET 0.006522 -0.017919 0.066408 
						CHANNELS 3 Zrotation Yrotation Xrotation
						End Site
						{
							OFFSET 0.000000 -0.000000 0.034549 
						}
					}
				}
			}
		}
	}
	JOINT RHipJoint
	{
		OFFSET 0.000000 0.000000 0.000000 
		CHANNELS 3 Zrotation Yrotation Xrotation
		JOINT RightUpLeg
		{
			OFFSET -0.046656 -0.055197 0.022926 
			CHANNELS 3 Zrotation Yrotation Xrotation
			JOINT RightLeg
			{
				OFFSET -0.076145 -0.209206 0.000000 
				CHANNELS 3 Zrotation Yrotation Xrotation
				JOINT RightFoot
				{
					OFFSET -0.082175 -0.225773 0.000000 
					CHANNELS 3 Zrotation Yrotation Xrotation
					JOINT RightToeBase
					{
						OFFSET -0.008058 -0.022138 0.069332 
						CHANNELS 3 Zrotation Yrotation Xrotation
						End Site
						{
							OFFSET -0.000000 -0.000000 0.036391 
						}
					}
				}
			}
		}
	}
	JOINT LowerBack
	{
		OFFSET 0.000000 0.000000 0.000000 
		CHANNELS 3 Zrotation Yrotation Xrotation
		JOINT Spine
		{
			OFFSET -0.000011 0.066375 -0.007953 
			CHANNELS 3 Zrotation Yrotation Xrotation
			JOINT Spine1
			{
				OFFSET 0.001748 0.066993 -0.001037 
				CHANNELS 3 Zrotation Yrotation Xrotation
				JOINT Neck
				{
					OFFSET 0.000000 0.000000 0.000000 
					CHANNELS 3 Zrotation Yrotation Xrotation
					JOINT Neck1
					{
						OFFSET -0.003073 0.050852 0.007566 
						CHANNELS 3 Zrotation Yrotation Xrotation
						JOINT Head
						{
							OFFSET 0.003390 0.051888 -0.007078 
							CHANNELS 3 Zrotation Yrotation Xrotation
							End Site
							{
								OFFSET 0.001370 0.052583 -0.003294 
							}
						}
					}
				}
				JOINT LeftShoulder
				{
					OFFSET 0.000000 0.000000 0.000000 
					CHANNELS 3 Zrotation Yrotation Xrotation
					JOINT LeftArm
					{
						OFFSET 0.102846 0.024812 -0.021306 
						CHANNELS 3 Zrotation Yrotation Xrotation
						JOINT LeftForeArm
						{
							OFFSET 0.161034 -0.000000 -0.000000 
							CHANNELS 3 Zrotation Yrotation Xrotation
							JOINT LeftHand
							{
								OFFSET 0.117231 -0.000000 -0.000000 
								CHANNELS 3 Zrotation Yrotation Xrotation
								JOINT LeftFingerBase
								{
									OFFSET 0.000000 0.000000 0.000000 
									CHANNELS 3 Zrotation Yrotation Xrotation
									JOINT LeftHandIndex1
									{
										OFFSET 0.016537 -0.000000 0.000000 
										CHANNELS 3 Zrotation Yrotation Xrotation
										End Site
										{
											OFFSET 0.013332 -0.000000 0.000000 
										}
									}
								}
								JOINT LThumb
								{
									OFFSET 0.000000 0.000000 0.000000 
									CHANNELS 3 Zrotation Yrotation Xrotation
									End Site
									{
										OFFSET 0.013536 -0.000000 0.013536 
									}
								}
							}
						}
					}
				}
				JOINT RightShoulder
				{
					OFFSET 0.000000 0.000000 0.000000 
					CHANNELS 3 Zrotation Yrotation Xrotation
					JOINT RightArm
					{
						OFFSET -0.096067 0.033214 -0.013856 
						CHANNELS 3 Zrotation Yrotation Xrotation
						JOINT RightForeArm
						{
							OFFSET -0.165504 -0.000000 0.000000 
							CHANNELS 3 Zrotation Yrotation Xrotation
							JOINT RightHand
							{
								OFFSET -0.117545 -0.000000 -0.000000 
								CHANNELS 3 Zrotation Yrotation Xrotation
								JOINT RightFingerBase
								{
									OFFSET 0.000000 0.000000 0.000000 
									CHANNELS 3 Zrotation Yrotation Xrotation
									JOINT RightHandIndex1
									{
										OFFSET -0.023354 -0.000000 0.000000 
										CHANNELS 3 Zrotation Yrotation Xrotation
										End Site
										{
											OFFSET -0.018828 -0.000000 0.000000 
										}
									}
								}
								JOINT RThumb
								{
									OFFSET 0.000000 0.000000 0.000000 
									CHANNELS 3 Zrotation Yrotation Xrotation
									End Site
									{
										OFFSET -0.019116 -0.000000 0.019116 
									}
								}
							}
						}
					}
				}
			}
		}
	}
}
MOTION
Frames: 12
Frame Time: 0.008333
0.495113 0.528003 -0.809237 0.000000 0.000000 0.000000 0.000000 0.000000 0.000000 -21.000000 0.000000 0.000000 0.000000 0.000000 0.000000 0.000000 0.000000 0.000000 0.000000 0.000000 0.000000 0.000000 0.000000 0.000000 21.000000 0.000000 0.000000 0.000000 0.000000 0.000000 0.000000 0.000000 0.000000 0.000000 0.000000 0.000000 0.000000 0.000000 0.000000 0.000000 0.000000 0.000000 0.000000 0.000000 0.000000 0.000000 0.000000 -16.000000 0.000000 0.000000 21.000000 0.000000 0.000000 11.000000 0.000000 0.000000 0.000000 -8.000000 0.000000 0.000000 0.000000 0.000000 0.000000 0.000000 0.000000 0.000000 0.000000 0.000000 0.000000 0.000000 0.000000 0.000000 0.000000 0.000000 0.000000 0.000000 0.000000 0.000000 8.000000 0.000000 0.000000 0.000000 0.000000 0.000000 0.000000 0.000000 0.000000 0.000000 0.000000 0.000000 0.000000 0.000000 0.000000 0.000000 0.000000 0.000000 
0.495113 0.528003 -0.809237 1.694500 -4.110100 -0.703100 0.000000 0.000000 0.000000 -22.511801 -5.411800 -18.710600 5.517200 13.943600 43.011799 1.115700 -1.710200 -19.470100 0.097000 -2.008300 -5.528600 0.000000 0.000000 0.000000 17.924999 2.970500 -12.369200 -16.353001 -19.678101 79.281601 0.163900 -8.642600 2.008600 -0.034300 -1.195000 3.285500 -2.716400 1.768100 11.149900 0.708600 2.046100 0.459700 1.945200 1.088200 -5.898000 -8.807400 -6.539700 -20.917200 12.237400 -8.402800 11.119000 4.413600 -3.271100 7.771200 0.000000 0.000000 0.000000 -82.745003 18.937599 41.137001 116.264900 -57.225800 -82.534203 -0.000000 0.000000 -15.070900 12.888700 12.853600 2.914100 -7.125000 0.000000 -0.000000 -13.012600 42.776600 0.727200 0.000000 0.000000 0.000000 84.468498 -11.575900 49.173599 -131.054306 52.561298 -94.665398 0.000000 -0.000000 -16.034800 -5.214000 17.753599 -1.593900 7.125000 -0.000000 -0.000000 14.927900 -12.588900 11.729900 
0.495406 0.526822 -0.799412 1.656400 -4.716800 -0.605600 0.000000 0.000000 0.000000 -22.575800 -4.836100 -17.904100 5.596900 14.026000 43.341801 1.220000 -1.562900 -20.424200 0.111600 -2.153600 -5.930300 0.000000 0.000000 0.000000 17.835300 3.570900 -14.602200 -16.709200 -19.738400 80.337898 0.166900 -7.838300 0.381000 -0.003900 -0.401200 1.102300 -2.579700 1.669500 11.111300 0.728000 1.934200 0.394800 1.906800 1.030900 -5.934500 -8.884800 -6.452200 -20.847300 12.177100 -8.240100 10.970200 4.429100 -3.208800 7.691900 0.000000 0.000000 0.000000 -82.859596 18.527700 40.275002 115.200203 -57.458900 -81.637901 -0.000000 0.000000 -13.840800 13.593900 12.218100 2.929600 -7.125000 0.000000 -0.000000 -12.233100 42.213299 0.855100 0.000000 0.000000 0.000000 84.717102 -12.508400 49.208900 -130.321396 52.865101 -94.082298 0.000000 -0.000000 -15.234300 -6.576800 16.051300 -1.825900 7.125000 -0.000000 -0.000000 14.107300 -14.161200 10.558300 
0.495650 0.526909 -0.789569 1.489500 -5.044400 -0.257700 0.000000 0.000000 0.000000 -22.530001 -4.500400 -17.007799 5.557700 13.985600 43.179901 1.289900 -1.499500 -21.033001 0.175700 -2.700400 -7.445700 0.000000 0.000000 0.000000 17.924400 3.990000 -16.938200 -16.812300 -19.754601 80.642998 0.145100 -6.894200 -0.964000 -0.000000 0.025900 -0.071200 -2.250700 1.446000 10.706100 0.742100 1.689100 0.452000 1.785100 0.898300 -5.623700 -8.924400 -6.257600 -21.181700 12.263200 -7.947500 10.920900 4.503500 -3.053300 7.705000 0.000000 -0.000000 0.000000 -83.009697 17.844601 39.136101 114.827904 -57.537601 -81.323799 -0.000000 0.000000 -14.046800 12.845500 12.722800 2.875000 -7.125000 0.000000 -0.000000 -13.016900 42.642200 0.771500 0.000000 -0.000000 0.000000 85.017601 -12.865700 49.005299 -129.536407 53.180801 -93.455101 0.000000 -0.000000 -15.295300 -7.468800 14.572200 -1.889200 7.125000 -0.000000 -0.000000 13.576700 -15.554600 9.719300 
0.496028 0.527478 -0.779547 1.251200 -5.560000 -0.033000 0.000000 0.000000 0.000000 -22.473600 -4.030200 -15.864700 5.508500 13.934500 42.975800 1.347000 -1.383200 -21.536800 0.228300 -3.075600 -8.489400 0.000000 0.000000 0.000000 18.229000 4.637300 -18.947201 -16.806400 -19.753700 80.625702 0.117700 -6.072600 -2.351300 -0.017100 0.845400 -2.323500 -1.862900 1.212900 10.373000 0.872400 1.439700 0.708200 1.749600 0.760800 -5.148700 -9.037300 -6.046200 -22.296000 12.218700 -7.557900 11.198100 4.557000 -2.834000 7.939400 -0.000000 -0.000000 0.000000 -83.404900 17.050501 37.858799 114.596802 -57.585800 -81.128799 -0.000000 0.000000 -14.281700 13.199300 13.003000 3.020800 -7.125000 0.000000 -0.000000 -12.777700 42.957199 0.655600 -0.000000 -0.000000 0.000000 84.969498 -12.760300 49.047401 -128.419601 53.613300 -92.558601 0.000000 -0.000000 -15.890700 -9.783300 13.116300 -2.240800 7.125000 -0.000000 -0.000000 12.070100 -16.857100 8.237500 
0.496456 0.528013 -0.769066 1.325100 -6.553600 -0.091000 0.000000 0.000000 0.000000 -22.882401 -3.181600 -14.355600 5.414800 13.836200 42.585201 1.389600 -0.988200 -21.994699 0.322800 -3.652100 -10.099800 0.000000 0.000000 0.000000 18.273100 5.596900 -20.493999 -16.678900 -19.733500 80.248100 0.068900 -5.064300 -3.984000 -0.166700 2.630700 -7.252100 -1.799300 1.165100 10.313400 0.991500 1.389900 1.159500 1.850400 0.727100 -4.642000 -9.088800 -6.057900 -24.305599 11.868200 -7.392500 11.836500 4.462800 -2.713100 8.448800 0.000000 0.000000 0.000000 -83.935699 16.158300 36.625900 114.575897 -57.590099 -81.111099 -0.000000 0.000000 -14.577100 13.846900 13.505100 3.294500 -7.125000 0.000000 -0.000000 -12.334700 43.526402 0.455900 0.000000 0.000000 0.000000 84.632797 -12.444600 49.681301 -127.720596 53.874500 -91.994904 0.000000 -0.000000 -15.882500 -11.201500 13.032100 -2.556900 7.125000 -0.000000 -0.000000 11.102800 -16.856899 7.550400 
0.496847 0.528431 -0.758541 1.587700 -7.491900 -0.353000 0.000000 0.000000 0.000000 -23.577600 -2.399500 -12.601700 5.312800 13.727600 42.157200 1.396900 -0.465900 -22.210800 0.409800 -4.109600 -11.385100 0.000000 0.000000 0.000000 18.159201 6.340800 -21.753599 -16.448000 -19.694799 79.563499 0.008300 -4.034800 -5.401400 -0.272600 3.358200 -9.277700 -1.974200 1.235000 10.611500 0.901900 1.452700 0.575400 1.836300 0.773600 -5.426000 -8.576700 -5.684000 -22.090401 11.367100 -7.069700 11.271300 4.262800 -2.669300 7.815600 -0.000000 -0.000000 0.000000 -83.879700 17.667000 36.067200 115.119003 -57.476200 -81.569298 -0.000000 0.000000 -15.036200 14.343900 13.835800 3.499400 -7.125000 0.000000 -0.000000 -11.978200 43.911598 0.326700 -0.000000 -0.000000 0.000000 84.789597 -14.567800 49.896900 -127.885696 53.813400 -92.128304 0.000000 -0.000000 -16.232800 -11.324900 12.576800 -2.497000 7.125000 -0.000000 -0.000000 11.031400 -17.303900 7.389900 
0.497084 0.528819 -0.748362 2.181500 -7.942200 -0.540600 0.000000 0.000000 0.000000 -24.604200 -2.007200 -11.052700 5.227700 13.635800 41.797501 1.347300 0.016700 -21.966101 0.487900 -4.478800 -12.427800 0.000000 0.000000 0.000000 17.665001 6.661100 -23.091000 -16.142900 -19.639500 78.657303 -0.061400 -2.919800 -6.673200 -0.146600 2.467100 -6.798400 -2.468600 1.151600 10.761300 0.786000 1.271300 0.358900 2.017900 0.701200 -5.737800 -8.273300 -5.469100 -21.379400 10.963600 -6.822300 11.002500 4.114000 -2.603400 7.554000 -0.000000 -0.000000 0.000000 -84.043800 18.229601 35.391899 115.472801 -57.400299 -81.867599 -0.000000 0.000000 -15.505800 14.697400 14.032600 3.639100 -7.125000 0.000000 -0.000000 -11.713300 44.148499 0.249700 -0.000000 -0.000000 0.000000 84.756104 -15.712400 49.791901 -128.354202 53.638100 -92.505997 0.000000 -0.000000 -16.601200 -10.113500 12.727000 -2.250300 7.125000 -0.000000 -0.000000 11.858700 -17.224300 7.989300 
0.497166 0.529681 -0.738238 2.592700 -8.159600 -0.522300 0.000000 0.000000 0.000000 -25.380800 -1.815100 -9.749400 5.152000 13.553000 41.475399 1.255000 0.490000 -21.363800 0.651100 -5.161400 -14.369400 0.000000 0.000000 0.000000 17.448999 6.889900 -24.534800 -15.717000 -19.554399 77.387497 -0.126800 -1.944500 -7.736000 -0.074400 1.759500 -4.841400 -2.867900 0.971300 10.698400 0.863400 0.989400 0.478500 2.370400 0.570400 -5.569500 -8.495800 -5.349600 -22.343300 10.889600 -6.539500 11.357300 4.161700 -2.451200 7.804600 0.000000 -0.000000 0.000000 -84.448898 17.954201 34.589199 115.768600 -57.335899 -82.116699 -0.000000 0.000000 -16.161501 15.023300 13.655800 3.625500 -7.125000 0.000000 -0.000000 -11.324300 43.805401 0.338400 0.000000 -0.000000 0.000000 84.340599 -15.991100 49.915001 -128.630905 53.533001 -92.728600 0.000000 -0.000000 -17.170099 -9.274000 13.333500 -2.156600 7.125000 -0.000000 -0.000000 12.409100 -16.671101 8.531800 
0.497137 0.530891 -0.728053 2.702300 -8.429600 -0.416100 0.000000 0.000000 0.000000 -25.759300 -1.403200 -8.631700 5.083200 13.476800 41.180801 1.138600 0.882100 -20.503700 0.922700 -6.119800 -17.132299 0.000000 0.000000 0.000000 17.708900 7.199700 -25.924101 -15.148400 -19.426001 75.683296 -0.162900 -1.422500 -8.283100 -0.090000 1.935000 -5.326100 -2.983400 0.712100 10.512300 1.128500 0.653500 0.933200 2.767300 0.395000 -4.970400 -9.085600 -5.342900 -24.903799 11.045600 -6.255400 12.389600 4.356400 -2.238200 8.567200 0.000000 0.000000 0.000000 -85.209000 16.999100 33.468800 116.111198 -57.260201 -82.404900 -0.000000 0.000000 -17.082800 14.462200 13.429600 3.428000 -7.125000 0.000000 -0.000000 -11.767600 43.516899 0.437100 0.000000 0.000000 0.000000 83.668098 -15.615700 50.463100 -128.408295 53.617599 -92.549500 0.000000 -0.000000 -18.209000 -9.297400 14.472100 -2.342800 7.125000 -0.000000 -0.000000 12.352900 -15.545500 8.800200 
0.497056 0.532416 -0.717606 3.098700 -8.745200 -0.522400 0.000000 0.000000 0.000000 -26.446600 -0.892500 -7.255300 4.987000 13.369200 40.766701 1.001400 1.212400 -19.381399 1.175800 -6.882300 -19.367100 0.000000 0.000000 0.000000 17.697599 7.410700 -26.941900 -14.444600 -19.243401 73.557899 -0.187300 -0.862600 -8.535800 -0.095700 1.995000 -5.491900 -3.328200 0.615000 10.399000 1.035300 0.479700 0.490800 2.890600 0.329800 -5.361900 -8.988700 -5.033400 -23.336500 11.058400 -5.993600 12.355700 4.388800 -2.157400 8.267000 0.000000 -0.000000 0.000000 -85.132004 18.081301 33.085098 116.714104 -57.123798 -82.911697 -0.000000 0.000000 -18.024200 14.563100 13.653300 3.509200 -7.125000 0.000000 -0.000000 -11.735000 43.752399 0.366600 0.000000 -0.000000 0.000000 83.703300 -17.639601 50.414101 -129.352295 53.253399 -93.307701 0.000000 -0.000000 -18.226700 -8.779200 14.399900 -2.199500 7.125000 -0.000000 -0.000000 12.704100 -15.648200 9.034400 
0.496894 0.534719 -0.706856 3.261800 -9.051500 -0.639900 0.000000 0.000000 0.000000 -26.803400 -0.388900 -5.855200 4.864800 13.229900 40.235500 0.849400 1.166000 -17.871000 1.372600 -7.414300 -20.948700 0.000000 0.000000 0.000000 18.016199 7.528900 -27.594801 -13.574800 -18.980000 70.901802 -0.232200 -0.338300 -9.230400 -0.154900 2.536000 -6.989400 -3.406200 0.465700 10.396600 1.085500 0.273900 0.400400 3.018500 0.233900 -5.440900 -9.148700 -4.899100 -23.418200 11.149400 -5.793900 12.642900 4.480900 -2.056800 8.363900 0.000000 -0.000000 0.000000 -85.391899 18.397400 32.528000 117.042603 -57.047798 -83.187500 -0.000000 0.000000 -18.255899 14.754800 14.035900 3.654800 -7.125000 0.000000 -0.000000 -11.662800 44.158199 0.245800 0.000000 -0.000000 0.000000 83.409302 -18.581800 50.686600 -130.003494 52.994099 -93.828598 0.000000 -0.000000 -18.965401 -8.632900 14.092800 -2.117100 7.125000 -0.000000 -0.000000 12.814100 -15.959100 9.028300 
